# xmcd
#
# Track frame offsets: 
#        182
#        10142
#        28832
#        45295
#        64607
#        83927
#        99370
#        115732
#        127792
#        142377
#        155067
#        168352
#        180782
#        191782
#        205132
#        211682
#
# Disc length: 3006 seconds
#
# Revision: 2
# Processed by: cddbd v1.5.2PL0 Copyright (c) Steve Scherf et al.
# Submitted via: ExactAudioCopy v1.1
#
DISCID=ce0bbc10
DTITLE=Various Artist - Goldene Weihnachtsgala für Millionen
DYEAR=1900
DGENRE=
TTITLE0=Orchester James Last - O Freude über Freude
TTITLE1=Angela Wiedl u. Die Nymphenburger Sternsinger - Ein Lied für a
TTITLE1=lle Menschen
TTITLE2=Richard Clayderman - Weihnachts-Konzert
TTITLE3=Tölzer Knabenchor - Es wird schon gleich dumpa
TTITLE4=Munich Classic Orchestra - In dulci Jubilo
TTITLE5=Tatjana Seyfert - Es ist ein Ros´ entsprungen
TTITLE6=Hanne Haller - Überall ist Bethlehem
TTITLE7=Marianne u. Michael - Susani
TTITLE8=Heintje Simons - Little Drummer Boy
TTITLE9=Tölzer Knabenchor - Morgen Kinder wirds was geben
TTITLE10=Andersen and Steinel - Weisse Winterweihnachtszeit
TTITLE11=Truck Stop - Wir wünschen ein frohes Fest 
TTITLE12=Passatchor - Kling Glöckchen
TTITLE13=Gaby Albrecht - Aba heischi bum beidschi
TTITLE14=Nora Hallinger - O du fröhliche
TTITLE15=Roy Black - Zu Bethlehem geboren
EXTD=
EXTT0=
EXTT1=
EXTT2=
EXTT3=
EXTT4=
EXTT5=
EXTT6=
EXTT7=
EXTT8=
EXTT9=
EXTT10=
EXTT11=
EXTT12=
EXTT13=
EXTT14=
EXTT15=
PLAYORDER=
